<mxfile host="app.diagrams.net" modified="2022-07-07T08:27:46.817Z" agent="5.0 (Windows NT 10.0; Win64; x64) AppleWebKit/537.36 (KHTML, like Gecko) Chrome/103.0.0.0 Safari/537.36" etag="KkBosWMF6aBtE0B1yESs" version="18.0.7" type="github" pages="3">
  <diagram id="lsqVwRWS0L_fTSIQD8fv" name="Page-1">
    <mxGraphModel dx="1955" dy="934" grid="1" gridSize="10" guides="1" tooltips="1" connect="1" arrows="1" fold="1" page="1" pageScale="1" pageWidth="3300" pageHeight="4681" math="0" shadow="0">
      <root>
        <mxCell id="0" />
        <mxCell id="1" parent="0" />
        <mxCell id="tgRphUZIYWm7nKavL7ND-13" style="edgeStyle=orthogonalEdgeStyle;rounded=0;orthogonalLoop=1;jettySize=auto;html=1;entryX=0;entryY=0.5;entryDx=0;entryDy=0;" edge="1" parent="1" source="tgRphUZIYWm7nKavL7ND-1" target="tgRphUZIYWm7nKavL7ND-4">
          <mxGeometry relative="1" as="geometry" />
        </mxCell>
        <mxCell id="tgRphUZIYWm7nKavL7ND-1" value="Guest" style="shape=umlActor;verticalLabelPosition=bottom;verticalAlign=top;html=1;outlineConnect=0;" vertex="1" parent="1">
          <mxGeometry x="330" y="270" width="30" height="60" as="geometry" />
        </mxCell>
        <mxCell id="tgRphUZIYWm7nKavL7ND-4" value="search" style="ellipse;whiteSpace=wrap;html=1;" vertex="1" parent="1">
          <mxGeometry x="520" y="170" width="120" height="80" as="geometry" />
        </mxCell>
        <mxCell id="tgRphUZIYWm7nKavL7ND-8" style="edgeStyle=orthogonalEdgeStyle;rounded=0;orthogonalLoop=1;jettySize=auto;html=1;" edge="1" parent="1" source="tgRphUZIYWm7nKavL7ND-5" target="tgRphUZIYWm7nKavL7ND-6">
          <mxGeometry relative="1" as="geometry" />
        </mxCell>
        <mxCell id="tgRphUZIYWm7nKavL7ND-5" value="create booking" style="ellipse;whiteSpace=wrap;html=1;" vertex="1" parent="1">
          <mxGeometry x="520" y="300" width="120" height="80" as="geometry" />
        </mxCell>
        <mxCell id="tgRphUZIYWm7nKavL7ND-9" style="edgeStyle=orthogonalEdgeStyle;rounded=0;orthogonalLoop=1;jettySize=auto;html=1;" edge="1" parent="1" source="tgRphUZIYWm7nKavL7ND-6" target="tgRphUZIYWm7nKavL7ND-7">
          <mxGeometry relative="1" as="geometry" />
        </mxCell>
        <mxCell id="tgRphUZIYWm7nKavL7ND-6" value="select seat" style="ellipse;whiteSpace=wrap;html=1;" vertex="1" parent="1">
          <mxGeometry x="520" y="420" width="120" height="80" as="geometry" />
        </mxCell>
        <mxCell id="tgRphUZIYWm7nKavL7ND-7" value="do payment" style="ellipse;whiteSpace=wrap;html=1;" vertex="1" parent="1">
          <mxGeometry x="700" y="420" width="120" height="80" as="geometry" />
        </mxCell>
        <mxCell id="tgRphUZIYWm7nKavL7ND-10" value="view booking" style="ellipse;whiteSpace=wrap;html=1;" vertex="1" parent="1">
          <mxGeometry x="520" y="580" width="120" height="80" as="geometry" />
        </mxCell>
        <mxCell id="tgRphUZIYWm7nKavL7ND-20" style="edgeStyle=orthogonalEdgeStyle;rounded=0;orthogonalLoop=1;jettySize=auto;html=1;" edge="1" parent="1" source="tgRphUZIYWm7nKavL7ND-11" target="tgRphUZIYWm7nKavL7ND-18">
          <mxGeometry relative="1" as="geometry" />
        </mxCell>
        <mxCell id="tgRphUZIYWm7nKavL7ND-11" value="cancle booking" style="ellipse;whiteSpace=wrap;html=1;" vertex="1" parent="1">
          <mxGeometry x="520" y="700" width="120" height="80" as="geometry" />
        </mxCell>
        <mxCell id="tgRphUZIYWm7nKavL7ND-14" style="edgeStyle=orthogonalEdgeStyle;rounded=0;orthogonalLoop=1;jettySize=auto;html=1;entryX=0;entryY=0.5;entryDx=0;entryDy=0;" edge="1" parent="1" source="tgRphUZIYWm7nKavL7ND-12" target="tgRphUZIYWm7nKavL7ND-4">
          <mxGeometry relative="1" as="geometry" />
        </mxCell>
        <mxCell id="tgRphUZIYWm7nKavL7ND-15" style="edgeStyle=orthogonalEdgeStyle;rounded=0;orthogonalLoop=1;jettySize=auto;html=1;entryX=0;entryY=0.5;entryDx=0;entryDy=0;" edge="1" parent="1" source="tgRphUZIYWm7nKavL7ND-12" target="tgRphUZIYWm7nKavL7ND-5">
          <mxGeometry relative="1" as="geometry" />
        </mxCell>
        <mxCell id="tgRphUZIYWm7nKavL7ND-16" style="edgeStyle=orthogonalEdgeStyle;rounded=0;orthogonalLoop=1;jettySize=auto;html=1;entryX=0;entryY=0.5;entryDx=0;entryDy=0;" edge="1" parent="1" source="tgRphUZIYWm7nKavL7ND-12" target="tgRphUZIYWm7nKavL7ND-10">
          <mxGeometry relative="1" as="geometry" />
        </mxCell>
        <mxCell id="tgRphUZIYWm7nKavL7ND-17" style="edgeStyle=orthogonalEdgeStyle;rounded=0;orthogonalLoop=1;jettySize=auto;html=1;entryX=0.008;entryY=0.6;entryDx=0;entryDy=0;entryPerimeter=0;" edge="1" parent="1" source="tgRphUZIYWm7nKavL7ND-12" target="tgRphUZIYWm7nKavL7ND-11">
          <mxGeometry relative="1" as="geometry" />
        </mxCell>
        <mxCell id="tgRphUZIYWm7nKavL7ND-12" value="Customer" style="shape=umlActor;verticalLabelPosition=bottom;verticalAlign=top;html=1;outlineConnect=0;" vertex="1" parent="1">
          <mxGeometry x="330" y="450" width="30" height="60" as="geometry" />
        </mxCell>
        <mxCell id="tgRphUZIYWm7nKavL7ND-21" style="edgeStyle=orthogonalEdgeStyle;rounded=0;orthogonalLoop=1;jettySize=auto;html=1;" edge="1" parent="1" source="tgRphUZIYWm7nKavL7ND-18" target="tgRphUZIYWm7nKavL7ND-19">
          <mxGeometry relative="1" as="geometry" />
        </mxCell>
        <mxCell id="tgRphUZIYWm7nKavL7ND-18" value="release seat" style="ellipse;whiteSpace=wrap;html=1;" vertex="1" parent="1">
          <mxGeometry x="520" y="810" width="120" height="80" as="geometry" />
        </mxCell>
        <mxCell id="tgRphUZIYWm7nKavL7ND-19" value="do refund&amp;nbsp;" style="ellipse;whiteSpace=wrap;html=1;" vertex="1" parent="1">
          <mxGeometry x="690" y="810" width="120" height="80" as="geometry" />
        </mxCell>
        <mxCell id="tgRphUZIYWm7nKavL7ND-23" style="edgeStyle=orthogonalEdgeStyle;rounded=0;orthogonalLoop=1;jettySize=auto;html=1;entryX=1;entryY=0.5;entryDx=0;entryDy=0;" edge="1" parent="1" source="tgRphUZIYWm7nKavL7ND-22" target="tgRphUZIYWm7nKavL7ND-4">
          <mxGeometry relative="1" as="geometry" />
        </mxCell>
        <mxCell id="tgRphUZIYWm7nKavL7ND-24" style="edgeStyle=orthogonalEdgeStyle;rounded=0;orthogonalLoop=1;jettySize=auto;html=1;entryX=1;entryY=0.5;entryDx=0;entryDy=0;" edge="1" parent="1" source="tgRphUZIYWm7nKavL7ND-22" target="tgRphUZIYWm7nKavL7ND-5">
          <mxGeometry relative="1" as="geometry" />
        </mxCell>
        <mxCell id="tgRphUZIYWm7nKavL7ND-25" style="edgeStyle=orthogonalEdgeStyle;rounded=0;orthogonalLoop=1;jettySize=auto;html=1;entryX=1;entryY=0.5;entryDx=0;entryDy=0;" edge="1" parent="1" source="tgRphUZIYWm7nKavL7ND-22" target="tgRphUZIYWm7nKavL7ND-10">
          <mxGeometry relative="1" as="geometry" />
        </mxCell>
        <mxCell id="tgRphUZIYWm7nKavL7ND-26" style="edgeStyle=orthogonalEdgeStyle;rounded=0;orthogonalLoop=1;jettySize=auto;html=1;entryX=1;entryY=0.5;entryDx=0;entryDy=0;" edge="1" parent="1" source="tgRphUZIYWm7nKavL7ND-22" target="tgRphUZIYWm7nKavL7ND-11">
          <mxGeometry relative="1" as="geometry" />
        </mxCell>
        <mxCell id="tgRphUZIYWm7nKavL7ND-22" value="front desk officer" style="shape=umlActor;verticalLabelPosition=bottom;verticalAlign=top;html=1;outlineConnect=0;" vertex="1" parent="1">
          <mxGeometry x="1230" y="240" width="30" height="60" as="geometry" />
        </mxCell>
        <mxCell id="tgRphUZIYWm7nKavL7ND-32" style="edgeStyle=orthogonalEdgeStyle;rounded=0;orthogonalLoop=1;jettySize=auto;html=1;entryX=1;entryY=0.5;entryDx=0;entryDy=0;" edge="1" parent="1" source="tgRphUZIYWm7nKavL7ND-27" target="tgRphUZIYWm7nKavL7ND-28">
          <mxGeometry relative="1" as="geometry" />
        </mxCell>
        <mxCell id="tgRphUZIYWm7nKavL7ND-33" style="edgeStyle=orthogonalEdgeStyle;rounded=0;orthogonalLoop=1;jettySize=auto;html=1;entryX=1;entryY=0.5;entryDx=0;entryDy=0;" edge="1" parent="1" source="tgRphUZIYWm7nKavL7ND-27" target="tgRphUZIYWm7nKavL7ND-29">
          <mxGeometry relative="1" as="geometry" />
        </mxCell>
        <mxCell id="tgRphUZIYWm7nKavL7ND-34" value="" style="edgeStyle=orthogonalEdgeStyle;rounded=0;orthogonalLoop=1;jettySize=auto;html=1;" edge="1" parent="1" source="tgRphUZIYWm7nKavL7ND-27" target="tgRphUZIYWm7nKavL7ND-30">
          <mxGeometry relative="1" as="geometry" />
        </mxCell>
        <mxCell id="tgRphUZIYWm7nKavL7ND-35" style="edgeStyle=orthogonalEdgeStyle;rounded=0;orthogonalLoop=1;jettySize=auto;html=1;entryX=1;entryY=0.5;entryDx=0;entryDy=0;" edge="1" parent="1" source="tgRphUZIYWm7nKavL7ND-27" target="tgRphUZIYWm7nKavL7ND-31">
          <mxGeometry relative="1" as="geometry" />
        </mxCell>
        <mxCell id="tgRphUZIYWm7nKavL7ND-27" value="Admin" style="shape=umlActor;verticalLabelPosition=bottom;verticalAlign=top;html=1;outlineConnect=0;" vertex="1" parent="1">
          <mxGeometry x="1230" y="670" width="30" height="60" as="geometry" />
        </mxCell>
        <mxCell id="tgRphUZIYWm7nKavL7ND-28" value="crud on movies" style="ellipse;whiteSpace=wrap;html=1;" vertex="1" parent="1">
          <mxGeometry x="1020" y="510" width="120" height="80" as="geometry" />
        </mxCell>
        <mxCell id="tgRphUZIYWm7nKavL7ND-29" value="crud on city" style="ellipse;whiteSpace=wrap;html=1;" vertex="1" parent="1">
          <mxGeometry x="1020" y="610" width="120" height="80" as="geometry" />
        </mxCell>
        <mxCell id="tgRphUZIYWm7nKavL7ND-30" value="crud on shows" style="ellipse;whiteSpace=wrap;html=1;" vertex="1" parent="1">
          <mxGeometry x="1020" y="730" width="120" height="80" as="geometry" />
        </mxCell>
        <mxCell id="tgRphUZIYWm7nKavL7ND-31" value="crud on cinema halls" style="ellipse;whiteSpace=wrap;html=1;" vertex="1" parent="1">
          <mxGeometry x="1020" y="850" width="120" height="80" as="geometry" />
        </mxCell>
        <mxCell id="tgRphUZIYWm7nKavL7ND-41" style="edgeStyle=orthogonalEdgeStyle;rounded=0;orthogonalLoop=1;jettySize=auto;html=1;" edge="1" parent="1" source="tgRphUZIYWm7nKavL7ND-38" target="tgRphUZIYWm7nKavL7ND-4">
          <mxGeometry relative="1" as="geometry" />
        </mxCell>
        <mxCell id="tgRphUZIYWm7nKavL7ND-38" value="movie title" style="ellipse;whiteSpace=wrap;html=1;" vertex="1" parent="1">
          <mxGeometry x="400" y="50" width="120" height="80" as="geometry" />
        </mxCell>
        <mxCell id="tgRphUZIYWm7nKavL7ND-42" style="edgeStyle=orthogonalEdgeStyle;rounded=0;orthogonalLoop=1;jettySize=auto;html=1;" edge="1" parent="1" source="tgRphUZIYWm7nKavL7ND-39">
          <mxGeometry relative="1" as="geometry">
            <mxPoint x="580" y="170" as="targetPoint" />
          </mxGeometry>
        </mxCell>
        <mxCell id="tgRphUZIYWm7nKavL7ND-39" value="language" style="ellipse;whiteSpace=wrap;html=1;" vertex="1" parent="1">
          <mxGeometry x="540" y="50" width="120" height="80" as="geometry" />
        </mxCell>
        <mxCell id="tgRphUZIYWm7nKavL7ND-43" style="edgeStyle=orthogonalEdgeStyle;rounded=0;orthogonalLoop=1;jettySize=auto;html=1;entryX=0.5;entryY=0;entryDx=0;entryDy=0;exitX=0.5;exitY=1;exitDx=0;exitDy=0;" edge="1" parent="1" source="tgRphUZIYWm7nKavL7ND-40" target="tgRphUZIYWm7nKavL7ND-4">
          <mxGeometry relative="1" as="geometry">
            <mxPoint x="690" y="150" as="targetPoint" />
          </mxGeometry>
        </mxCell>
        <mxCell id="tgRphUZIYWm7nKavL7ND-40" value="date" style="ellipse;whiteSpace=wrap;html=1;" vertex="1" parent="1">
          <mxGeometry x="690" y="50" width="120" height="80" as="geometry" />
        </mxCell>
      </root>
    </mxGraphModel>
  </diagram>
  <diagram id="dmncXyMMKc2tWR1oBtXf" name="Page-2">
    <mxGraphModel dx="1662" dy="794" grid="1" gridSize="10" guides="1" tooltips="1" connect="1" arrows="1" fold="1" page="1" pageScale="1" pageWidth="3300" pageHeight="4681" math="0" shadow="0">
      <root>
        <mxCell id="0" />
        <mxCell id="1" parent="0" />
        <mxCell id="zNQnL2nIf4LpFZz7sd8v-1" value="Person" style="swimlane;fontStyle=1;align=center;verticalAlign=top;childLayout=stackLayout;horizontal=1;startSize=26;horizontalStack=0;resizeParent=1;resizeParentMax=0;resizeLast=0;collapsible=1;marginBottom=0;" vertex="1" parent="1">
          <mxGeometry x="280" y="360" width="160" height="110" as="geometry" />
        </mxCell>
        <mxCell id="zNQnL2nIf4LpFZz7sd8v-2" value="- Name String&#xa;- Address String&#xa;- email String &#xa;- phone String" style="text;strokeColor=none;fillColor=none;align=left;verticalAlign=top;spacingLeft=4;spacingRight=4;overflow=hidden;rotatable=0;points=[[0,0.5],[1,0.5]];portConstraint=eastwest;" vertex="1" parent="zNQnL2nIf4LpFZz7sd8v-1">
          <mxGeometry y="26" width="160" height="74" as="geometry" />
        </mxCell>
        <mxCell id="zNQnL2nIf4LpFZz7sd8v-3" value="" style="line;strokeWidth=1;fillColor=none;align=left;verticalAlign=middle;spacingTop=-1;spacingLeft=3;spacingRight=3;rotatable=0;labelPosition=right;points=[];portConstraint=eastwest;" vertex="1" parent="zNQnL2nIf4LpFZz7sd8v-1">
          <mxGeometry y="100" width="160" height="10" as="geometry" />
        </mxCell>
        <mxCell id="MreGQW3Ha40NChxpMUqg-4" style="edgeStyle=orthogonalEdgeStyle;rounded=0;orthogonalLoop=1;jettySize=auto;html=1;entryX=0.5;entryY=1;entryDx=0;entryDy=0;exitX=0.5;exitY=0;exitDx=0;exitDy=0;" edge="1" parent="1" source="zNQnL2nIf4LpFZz7sd8v-5" target="zNQnL2nIf4LpFZz7sd8v-1">
          <mxGeometry relative="1" as="geometry">
            <Array as="points">
              <mxPoint x="160" y="530" />
              <mxPoint x="360" y="530" />
            </Array>
          </mxGeometry>
        </mxCell>
        <mxCell id="zNQnL2nIf4LpFZz7sd8v-5" value="Admin" style="swimlane;fontStyle=1;align=center;verticalAlign=top;childLayout=stackLayout;horizontal=1;startSize=26;horizontalStack=0;resizeParent=1;resizeParentMax=0;resizeLast=0;collapsible=1;marginBottom=0;" vertex="1" parent="1">
          <mxGeometry x="80" y="570" width="160" height="120" as="geometry" />
        </mxCell>
        <mxCell id="zNQnL2nIf4LpFZz7sd8v-7" value="" style="line;strokeWidth=1;fillColor=none;align=left;verticalAlign=middle;spacingTop=-1;spacingLeft=3;spacingRight=3;rotatable=0;labelPosition=right;points=[];portConstraint=eastwest;" vertex="1" parent="zNQnL2nIf4LpFZz7sd8v-5">
          <mxGeometry y="26" width="160" height="8" as="geometry" />
        </mxCell>
        <mxCell id="zNQnL2nIf4LpFZz7sd8v-8" value="+ addShow() : void&#xa;+ addCity() : void&#xa;+ addCinemaHall() : void&#xa;+ addMovies() : void&#xa;+ addUser() : void" style="text;strokeColor=none;fillColor=none;align=left;verticalAlign=top;spacingLeft=4;spacingRight=4;overflow=hidden;rotatable=0;points=[[0,0.5],[1,0.5]];portConstraint=eastwest;" vertex="1" parent="zNQnL2nIf4LpFZz7sd8v-5">
          <mxGeometry y="34" width="160" height="86" as="geometry" />
        </mxCell>
        <mxCell id="MreGQW3Ha40NChxpMUqg-5" style="edgeStyle=orthogonalEdgeStyle;rounded=0;orthogonalLoop=1;jettySize=auto;html=1;exitX=0.5;exitY=0;exitDx=0;exitDy=0;" edge="1" parent="1" source="N-IgtNgKBBWEBSyaaWTE-5">
          <mxGeometry relative="1" as="geometry">
            <mxPoint x="360" y="470" as="targetPoint" />
            <Array as="points">
              <mxPoint x="360" y="570" />
            </Array>
          </mxGeometry>
        </mxCell>
        <mxCell id="N-IgtNgKBBWEBSyaaWTE-5" value="Customer" style="swimlane;fontStyle=1;align=center;verticalAlign=top;childLayout=stackLayout;horizontal=1;startSize=26;horizontalStack=0;resizeParent=1;resizeParentMax=0;resizeLast=0;collapsible=1;marginBottom=0;" vertex="1" parent="1">
          <mxGeometry x="270" y="570" width="160" height="120" as="geometry" />
        </mxCell>
        <mxCell id="N-IgtNgKBBWEBSyaaWTE-7" value="" style="line;strokeWidth=1;fillColor=none;align=left;verticalAlign=middle;spacingTop=-1;spacingLeft=3;spacingRight=3;rotatable=0;labelPosition=right;points=[];portConstraint=eastwest;" vertex="1" parent="N-IgtNgKBBWEBSyaaWTE-5">
          <mxGeometry y="26" width="160" height="8" as="geometry" />
        </mxCell>
        <mxCell id="N-IgtNgKBBWEBSyaaWTE-8" value="+ searchMovie() : void&#xa;+ createBooking() : void&#xa;+ cancleBooking() : void&#xa;+ viewBooking() : Booking" style="text;strokeColor=none;fillColor=none;align=left;verticalAlign=top;spacingLeft=4;spacingRight=4;overflow=hidden;rotatable=0;points=[[0,0.5],[1,0.5]];portConstraint=eastwest;" vertex="1" parent="N-IgtNgKBBWEBSyaaWTE-5">
          <mxGeometry y="34" width="160" height="86" as="geometry" />
        </mxCell>
        <mxCell id="MreGQW3Ha40NChxpMUqg-25" style="edgeStyle=orthogonalEdgeStyle;rounded=0;orthogonalLoop=1;jettySize=auto;html=1;entryX=1.011;entryY=0.291;entryDx=0;entryDy=0;entryPerimeter=0;" edge="1" parent="1" source="N-IgtNgKBBWEBSyaaWTE-9" target="MreGQW3Ha40NChxpMUqg-22">
          <mxGeometry relative="1" as="geometry" />
        </mxCell>
        <mxCell id="N-IgtNgKBBWEBSyaaWTE-9" value="Guest" style="swimlane;fontStyle=1;align=center;verticalAlign=top;childLayout=stackLayout;horizontal=1;startSize=26;horizontalStack=0;resizeParent=1;resizeParentMax=0;resizeLast=0;collapsible=1;marginBottom=0;" vertex="1" parent="1">
          <mxGeometry x="1360" y="340" width="160" height="60" as="geometry" />
        </mxCell>
        <mxCell id="N-IgtNgKBBWEBSyaaWTE-11" value="" style="line;strokeWidth=1;fillColor=none;align=left;verticalAlign=middle;spacingTop=-1;spacingLeft=3;spacingRight=3;rotatable=0;labelPosition=right;points=[];portConstraint=eastwest;" vertex="1" parent="N-IgtNgKBBWEBSyaaWTE-9">
          <mxGeometry y="26" width="160" height="8" as="geometry" />
        </mxCell>
        <mxCell id="N-IgtNgKBBWEBSyaaWTE-12" value="+ searchMovie()" style="text;strokeColor=none;fillColor=none;align=left;verticalAlign=top;spacingLeft=4;spacingRight=4;overflow=hidden;rotatable=0;points=[[0,0.5],[1,0.5]];portConstraint=eastwest;" vertex="1" parent="N-IgtNgKBBWEBSyaaWTE-9">
          <mxGeometry y="34" width="160" height="26" as="geometry" />
        </mxCell>
        <mxCell id="MreGQW3Ha40NChxpMUqg-7" style="edgeStyle=orthogonalEdgeStyle;rounded=0;orthogonalLoop=1;jettySize=auto;html=1;entryX=0.5;entryY=1;entryDx=0;entryDy=0;exitX=0.5;exitY=0;exitDx=0;exitDy=0;" edge="1" parent="1" source="MreGQW3Ha40NChxpMUqg-1" target="zNQnL2nIf4LpFZz7sd8v-1">
          <mxGeometry relative="1" as="geometry" />
        </mxCell>
        <mxCell id="MreGQW3Ha40NChxpMUqg-1" value="frontDesk Manager" style="swimlane;fontStyle=1;align=center;verticalAlign=top;childLayout=stackLayout;horizontal=1;startSize=26;horizontalStack=0;resizeParent=1;resizeParentMax=0;resizeLast=0;collapsible=1;marginBottom=0;" vertex="1" parent="1">
          <mxGeometry x="460" y="570" width="160" height="120" as="geometry" />
        </mxCell>
        <mxCell id="MreGQW3Ha40NChxpMUqg-2" value="" style="line;strokeWidth=1;fillColor=none;align=left;verticalAlign=middle;spacingTop=-1;spacingLeft=3;spacingRight=3;rotatable=0;labelPosition=right;points=[];portConstraint=eastwest;" vertex="1" parent="MreGQW3Ha40NChxpMUqg-1">
          <mxGeometry y="26" width="160" height="8" as="geometry" />
        </mxCell>
        <mxCell id="MreGQW3Ha40NChxpMUqg-3" value="+ searchMovie() : void&#xa;+ createBooking() : void&#xa;+ cancleBooking() : void&#xa;+ viewBooking() : Booking" style="text;strokeColor=none;fillColor=none;align=left;verticalAlign=top;spacingLeft=4;spacingRight=4;overflow=hidden;rotatable=0;points=[[0,0.5],[1,0.5]];portConstraint=eastwest;" vertex="1" parent="MreGQW3Ha40NChxpMUqg-1">
          <mxGeometry y="34" width="160" height="86" as="geometry" />
        </mxCell>
        <mxCell id="MreGQW3Ha40NChxpMUqg-8" value="extends" style="text;html=1;align=center;verticalAlign=middle;resizable=0;points=[];autosize=1;strokeColor=none;fillColor=none;" vertex="1" parent="1">
          <mxGeometry x="360" y="490" width="60" height="20" as="geometry" />
        </mxCell>
        <mxCell id="MreGQW3Ha40NChxpMUqg-9" value="Account" style="swimlane;fontStyle=1;align=center;verticalAlign=top;childLayout=stackLayout;horizontal=1;startSize=26;horizontalStack=0;resizeParent=1;resizeParentMax=0;resizeLast=0;collapsible=1;marginBottom=0;" vertex="1" parent="1">
          <mxGeometry x="640" y="366" width="160" height="124" as="geometry" />
        </mxCell>
        <mxCell id="MreGQW3Ha40NChxpMUqg-10" value="- accountID int&#xa;- password String&#xa;- status AccountStatus" style="text;strokeColor=none;fillColor=none;align=left;verticalAlign=top;spacingLeft=4;spacingRight=4;overflow=hidden;rotatable=0;points=[[0,0.5],[1,0.5]];portConstraint=eastwest;" vertex="1" parent="MreGQW3Ha40NChxpMUqg-9">
          <mxGeometry y="26" width="160" height="64" as="geometry" />
        </mxCell>
        <mxCell id="MreGQW3Ha40NChxpMUqg-11" value="" style="line;strokeWidth=1;fillColor=none;align=left;verticalAlign=middle;spacingTop=-1;spacingLeft=3;spacingRight=3;rotatable=0;labelPosition=right;points=[];portConstraint=eastwest;" vertex="1" parent="MreGQW3Ha40NChxpMUqg-9">
          <mxGeometry y="90" width="160" height="8" as="geometry" />
        </mxCell>
        <mxCell id="MreGQW3Ha40NChxpMUqg-12" value="+resetPassword() : boolean" style="text;strokeColor=none;fillColor=none;align=left;verticalAlign=top;spacingLeft=4;spacingRight=4;overflow=hidden;rotatable=0;points=[[0,0.5],[1,0.5]];portConstraint=eastwest;" vertex="1" parent="MreGQW3Ha40NChxpMUqg-9">
          <mxGeometry y="98" width="160" height="26" as="geometry" />
        </mxCell>
        <mxCell id="MreGQW3Ha40NChxpMUqg-17" style="edgeStyle=orthogonalEdgeStyle;rounded=0;orthogonalLoop=1;jettySize=auto;html=1;entryX=1;entryY=0.5;entryDx=0;entryDy=0;" edge="1" parent="1" source="MreGQW3Ha40NChxpMUqg-10" target="zNQnL2nIf4LpFZz7sd8v-2">
          <mxGeometry relative="1" as="geometry" />
        </mxCell>
        <mxCell id="MreGQW3Ha40NChxpMUqg-18" value="uses" style="text;html=1;align=center;verticalAlign=middle;resizable=0;points=[];autosize=1;strokeColor=none;fillColor=none;" vertex="1" parent="1">
          <mxGeometry x="510" y="400" width="40" height="20" as="geometry" />
        </mxCell>
        <mxCell id="MreGQW3Ha40NChxpMUqg-19" value="&lt;&lt; Interface &gt;&gt; &#xa;SearchService" style="swimlane;fontStyle=1;align=center;verticalAlign=top;childLayout=stackLayout;horizontal=1;startSize=26;horizontalStack=0;resizeParent=1;resizeParentMax=0;resizeLast=0;collapsible=1;marginBottom=0;" vertex="1" parent="1">
          <mxGeometry x="990" y="310" width="190" height="146" as="geometry" />
        </mxCell>
        <mxCell id="MreGQW3Ha40NChxpMUqg-21" value="" style="line;strokeWidth=1;fillColor=none;align=left;verticalAlign=middle;spacingTop=-1;spacingLeft=3;spacingRight=3;rotatable=0;labelPosition=right;points=[];portConstraint=eastwest;" vertex="1" parent="MreGQW3Ha40NChxpMUqg-19">
          <mxGeometry y="26" width="190" height="34" as="geometry" />
        </mxCell>
        <mxCell id="MreGQW3Ha40NChxpMUqg-22" value="+ searchByName() : Movie&#xa;+ searchByType() : Movie&#xa;+ searchByLang() : Movie&#xa;+ searchByReleaseDate() : Movie" style="text;strokeColor=none;fillColor=none;align=left;verticalAlign=top;spacingLeft=4;spacingRight=4;overflow=hidden;rotatable=0;points=[[0,0.5],[1,0.5]];portConstraint=eastwest;" vertex="1" parent="MreGQW3Ha40NChxpMUqg-19">
          <mxGeometry y="60" width="190" height="86" as="geometry" />
        </mxCell>
        <mxCell id="MreGQW3Ha40NChxpMUqg-23" style="edgeStyle=orthogonalEdgeStyle;rounded=0;orthogonalLoop=1;jettySize=auto;html=1;entryX=-0.016;entryY=0.326;entryDx=0;entryDy=0;entryPerimeter=0;" edge="1" parent="1" source="MreGQW3Ha40NChxpMUqg-10" target="MreGQW3Ha40NChxpMUqg-22">
          <mxGeometry relative="1" as="geometry" />
        </mxCell>
        <mxCell id="MreGQW3Ha40NChxpMUqg-24" value="uses" style="text;html=1;align=center;verticalAlign=middle;resizable=0;points=[];autosize=1;strokeColor=none;fillColor=none;" vertex="1" parent="1">
          <mxGeometry x="910" y="346" width="40" height="20" as="geometry" />
        </mxCell>
        <mxCell id="MreGQW3Ha40NChxpMUqg-26" value="uses" style="text;html=1;align=center;verticalAlign=middle;resizable=0;points=[];autosize=1;strokeColor=none;fillColor=none;" vertex="1" parent="1">
          <mxGeometry x="1250" y="340" width="40" height="20" as="geometry" />
        </mxCell>
        <mxCell id="MreGQW3Ha40NChxpMUqg-27" value="Booking" style="swimlane;fontStyle=1;align=center;verticalAlign=top;childLayout=stackLayout;horizontal=1;startSize=26;horizontalStack=0;resizeParent=1;resizeParentMax=0;resizeLast=0;collapsible=1;marginBottom=0;" vertex="1" parent="1">
          <mxGeometry x="270" y="800" width="190" height="98" as="geometry" />
        </mxCell>
        <mxCell id="MreGQW3Ha40NChxpMUqg-28" value="- bookingId int&#xa;- numberOfSeats int&#xa;- bookingTime : date&#xa;- bookingStatus : BookingStatus" style="text;strokeColor=none;fillColor=none;align=left;verticalAlign=top;spacingLeft=4;spacingRight=4;overflow=hidden;rotatable=0;points=[[0,0.5],[1,0.5]];portConstraint=eastwest;" vertex="1" parent="MreGQW3Ha40NChxpMUqg-27">
          <mxGeometry y="26" width="190" height="64" as="geometry" />
        </mxCell>
        <mxCell id="MreGQW3Ha40NChxpMUqg-29" value="" style="line;strokeWidth=1;fillColor=none;align=left;verticalAlign=middle;spacingTop=-1;spacingLeft=3;spacingRight=3;rotatable=0;labelPosition=right;points=[];portConstraint=eastwest;" vertex="1" parent="MreGQW3Ha40NChxpMUqg-27">
          <mxGeometry y="90" width="190" height="8" as="geometry" />
        </mxCell>
      </root>
    </mxGraphModel>
  </diagram>
  <diagram id="5LTVDYbT19R_WsVpSIVa" name="Page-3">
    <mxGraphModel dx="2374" dy="1134" grid="1" gridSize="10" guides="1" tooltips="1" connect="1" arrows="1" fold="1" page="1" pageScale="1" pageWidth="3300" pageHeight="4681" math="0" shadow="0">
      <root>
        <mxCell id="0" />
        <mxCell id="1" parent="0" />
        <mxCell id="41__YXktI6a2Q9gszbYc-2" style="edgeStyle=orthogonalEdgeStyle;rounded=0;orthogonalLoop=1;jettySize=auto;html=1;entryX=0;entryY=0.138;entryDx=0;entryDy=0;entryPerimeter=0;" edge="1" parent="1" source="VA1_dp1RaQFljFilSGIo-1" target="VA1_dp1RaQFljFilSGIo-8">
          <mxGeometry relative="1" as="geometry" />
        </mxCell>
        <mxCell id="VA1_dp1RaQFljFilSGIo-1" value="BookMyShow" style="swimlane;fontStyle=1;align=center;verticalAlign=top;childLayout=stackLayout;horizontal=1;startSize=26;horizontalStack=0;resizeParent=1;resizeParentMax=0;resizeLast=0;collapsible=1;marginBottom=0;" vertex="1" parent="1">
          <mxGeometry x="190" y="100" width="220" height="78" as="geometry" />
        </mxCell>
        <mxCell id="VA1_dp1RaQFljFilSGIo-2" value="- SearchService : searchService&#xa;- BookingService : bookingService&#xa;" style="text;strokeColor=none;fillColor=none;align=left;verticalAlign=top;spacingLeft=4;spacingRight=4;overflow=hidden;rotatable=0;points=[[0,0.5],[1,0.5]];portConstraint=eastwest;" vertex="1" parent="VA1_dp1RaQFljFilSGIo-1">
          <mxGeometry y="26" width="220" height="44" as="geometry" />
        </mxCell>
        <mxCell id="VA1_dp1RaQFljFilSGIo-3" value="" style="line;strokeWidth=1;fillColor=none;align=left;verticalAlign=middle;spacingTop=-1;spacingLeft=3;spacingRight=3;rotatable=0;labelPosition=right;points=[];portConstraint=eastwest;" vertex="1" parent="VA1_dp1RaQFljFilSGIo-1">
          <mxGeometry y="70" width="220" height="8" as="geometry" />
        </mxCell>
        <mxCell id="VA1_dp1RaQFljFilSGIo-5" value="SearchService" style="swimlane;fontStyle=1;align=center;verticalAlign=top;childLayout=stackLayout;horizontal=1;startSize=26;horizontalStack=0;resizeParent=1;resizeParentMax=0;resizeLast=0;collapsible=1;marginBottom=0;" vertex="1" parent="1">
          <mxGeometry x="530" y="94" width="240" height="114" as="geometry" />
        </mxCell>
        <mxCell id="VA1_dp1RaQFljFilSGIo-7" value="" style="line;strokeWidth=1;fillColor=none;align=left;verticalAlign=middle;spacingTop=-1;spacingLeft=3;spacingRight=3;rotatable=0;labelPosition=right;points=[];portConstraint=eastwest;" vertex="1" parent="VA1_dp1RaQFljFilSGIo-5">
          <mxGeometry y="26" width="240" height="8" as="geometry" />
        </mxCell>
        <mxCell id="VA1_dp1RaQFljFilSGIo-8" value="+ searchByName() : List&lt;Movies&gt;&#xa;+ searchByType() : List&lt;Movies&gt;&#xa;+searchByLang() : List&lt;Movies&gt;&#xa;+ searchByReleaseDate() : List&lt;Movies&gt;" style="text;strokeColor=none;fillColor=none;align=left;verticalAlign=top;spacingLeft=4;spacingRight=4;overflow=hidden;rotatable=0;points=[[0,0.5],[1,0.5]];portConstraint=eastwest;" vertex="1" parent="VA1_dp1RaQFljFilSGIo-5">
          <mxGeometry y="34" width="240" height="80" as="geometry" />
        </mxCell>
        <mxCell id="41__YXktI6a2Q9gszbYc-7" style="edgeStyle=orthogonalEdgeStyle;rounded=0;orthogonalLoop=1;jettySize=auto;html=1;entryX=0.006;entryY=0.087;entryDx=0;entryDy=0;entryPerimeter=0;" edge="1" parent="1" source="VA1_dp1RaQFljFilSGIo-9" target="VA1_dp1RaQFljFilSGIo-16">
          <mxGeometry relative="1" as="geometry" />
        </mxCell>
        <mxCell id="VA1_dp1RaQFljFilSGIo-9" value="BokingService" style="swimlane;fontStyle=1;align=center;verticalAlign=top;childLayout=stackLayout;horizontal=1;startSize=26;horizontalStack=0;resizeParent=1;resizeParentMax=0;resizeLast=0;collapsible=1;marginBottom=0;" vertex="1" parent="1">
          <mxGeometry x="340" y="490" width="300" height="158" as="geometry">
            <mxRectangle x="530" y="260" width="120" height="26" as="alternateBounds" />
          </mxGeometry>
        </mxCell>
        <mxCell id="VA1_dp1RaQFljFilSGIo-10" value="- PaymentService : paymentService&#xa;- SeatAllocationService : seatAllocationService" style="text;strokeColor=none;fillColor=none;align=left;verticalAlign=top;spacingLeft=4;spacingRight=4;overflow=hidden;rotatable=0;points=[[0,0.5],[1,0.5]];portConstraint=eastwest;" vertex="1" parent="VA1_dp1RaQFljFilSGIo-9">
          <mxGeometry y="26" width="300" height="44" as="geometry" />
        </mxCell>
        <mxCell id="VA1_dp1RaQFljFilSGIo-11" value="" style="line;strokeWidth=1;fillColor=none;align=left;verticalAlign=middle;spacingTop=-1;spacingLeft=3;spacingRight=3;rotatable=0;labelPosition=right;points=[];portConstraint=eastwest;" vertex="1" parent="VA1_dp1RaQFljFilSGIo-9">
          <mxGeometry y="70" width="300" height="28" as="geometry" />
        </mxCell>
        <mxCell id="VA1_dp1RaQFljFilSGIo-12" value="+ createBooking() : void&#xa;+ cancleBooking() : void&#xa;+ viewBooking() : Booking" style="text;strokeColor=none;fillColor=none;align=left;verticalAlign=top;spacingLeft=4;spacingRight=4;overflow=hidden;rotatable=0;points=[[0,0.5],[1,0.5]];portConstraint=eastwest;" vertex="1" parent="VA1_dp1RaQFljFilSGIo-9">
          <mxGeometry y="98" width="300" height="60" as="geometry" />
        </mxCell>
        <mxCell id="VA1_dp1RaQFljFilSGIo-13" value="PaymentService" style="swimlane;fontStyle=1;align=center;verticalAlign=top;childLayout=stackLayout;horizontal=1;startSize=26;horizontalStack=0;resizeParent=1;resizeParentMax=0;resizeLast=0;collapsible=1;marginBottom=0;" vertex="1" parent="1">
          <mxGeometry x="810" y="529" width="160" height="80" as="geometry" />
        </mxCell>
        <mxCell id="VA1_dp1RaQFljFilSGIo-15" value="" style="line;strokeWidth=1;fillColor=none;align=left;verticalAlign=middle;spacingTop=-1;spacingLeft=3;spacingRight=3;rotatable=0;labelPosition=right;points=[];portConstraint=eastwest;" vertex="1" parent="VA1_dp1RaQFljFilSGIo-13">
          <mxGeometry y="26" width="160" height="8" as="geometry" />
        </mxCell>
        <mxCell id="VA1_dp1RaQFljFilSGIo-16" value="+ makePayment() : void&#xa;+ makeRefund() : void" style="text;strokeColor=none;fillColor=none;align=left;verticalAlign=top;spacingLeft=4;spacingRight=4;overflow=hidden;rotatable=0;points=[[0,0.5],[1,0.5]];portConstraint=eastwest;" vertex="1" parent="VA1_dp1RaQFljFilSGIo-13">
          <mxGeometry y="34" width="160" height="46" as="geometry" />
        </mxCell>
        <mxCell id="VA1_dp1RaQFljFilSGIo-17" value="SeatAllocationService" style="swimlane;fontStyle=1;align=center;verticalAlign=top;childLayout=stackLayout;horizontal=1;startSize=26;horizontalStack=0;resizeParent=1;resizeParentMax=0;resizeLast=0;collapsible=1;marginBottom=0;" vertex="1" parent="1">
          <mxGeometry x="690" y="660" width="160" height="80" as="geometry" />
        </mxCell>
        <mxCell id="VA1_dp1RaQFljFilSGIo-19" value="" style="line;strokeWidth=1;fillColor=none;align=left;verticalAlign=middle;spacingTop=-1;spacingLeft=3;spacingRight=3;rotatable=0;labelPosition=right;points=[];portConstraint=eastwest;" vertex="1" parent="VA1_dp1RaQFljFilSGIo-17">
          <mxGeometry y="26" width="160" height="8" as="geometry" />
        </mxCell>
        <mxCell id="VA1_dp1RaQFljFilSGIo-20" value="+ allocateSeat() : void&#xa;+ releaseSeat() : void" style="text;strokeColor=none;fillColor=none;align=left;verticalAlign=top;spacingLeft=4;spacingRight=4;overflow=hidden;rotatable=0;points=[[0,0.5],[1,0.5]];portConstraint=eastwest;" vertex="1" parent="VA1_dp1RaQFljFilSGIo-17">
          <mxGeometry y="34" width="160" height="46" as="geometry" />
        </mxCell>
        <mxCell id="41__YXktI6a2Q9gszbYc-3" value="searchService" style="text;html=1;align=center;verticalAlign=middle;resizable=0;points=[];autosize=1;strokeColor=none;fillColor=none;" vertex="1" parent="1">
          <mxGeometry x="430" y="110" width="90" height="20" as="geometry" />
        </mxCell>
        <mxCell id="41__YXktI6a2Q9gszbYc-4" style="edgeStyle=orthogonalEdgeStyle;rounded=0;orthogonalLoop=1;jettySize=auto;html=1;entryX=0;entryY=0.5;entryDx=0;entryDy=0;" edge="1" parent="1" source="VA1_dp1RaQFljFilSGIo-2" target="VA1_dp1RaQFljFilSGIo-9">
          <mxGeometry relative="1" as="geometry">
            <Array as="points">
              <mxPoint x="300" y="619" />
            </Array>
          </mxGeometry>
        </mxCell>
        <mxCell id="41__YXktI6a2Q9gszbYc-5" value="BookingService" style="text;html=1;align=center;verticalAlign=middle;resizable=0;points=[];autosize=1;strokeColor=none;fillColor=none;" vertex="1" parent="1">
          <mxGeometry x="210" y="570" width="100" height="20" as="geometry" />
        </mxCell>
        <mxCell id="41__YXktI6a2Q9gszbYc-8" style="edgeStyle=orthogonalEdgeStyle;rounded=0;orthogonalLoop=1;jettySize=auto;html=1;entryX=-0.012;entryY=0.283;entryDx=0;entryDy=0;entryPerimeter=0;" edge="1" parent="1" source="VA1_dp1RaQFljFilSGIo-12" target="VA1_dp1RaQFljFilSGIo-20">
          <mxGeometry relative="1" as="geometry">
            <Array as="points">
              <mxPoint x="490" y="690" />
              <mxPoint x="695" y="690" />
              <mxPoint x="695" y="700" />
              <mxPoint x="688" y="700" />
            </Array>
          </mxGeometry>
        </mxCell>
        <mxCell id="41__YXktI6a2Q9gszbYc-9" value="createBooking()&lt;br&gt;cancleBooking()" style="text;html=1;align=center;verticalAlign=middle;resizable=0;points=[];autosize=1;strokeColor=none;fillColor=none;" vertex="1" parent="1">
          <mxGeometry x="670" y="530" width="100" height="30" as="geometry" />
        </mxCell>
        <mxCell id="41__YXktI6a2Q9gszbYc-10" value="createBooking()&lt;br&gt;cancleBooking()" style="text;html=1;align=center;verticalAlign=middle;resizable=0;points=[];autosize=1;strokeColor=none;fillColor=none;" vertex="1" parent="1">
          <mxGeometry x="510" y="660" width="100" height="30" as="geometry" />
        </mxCell>
        <mxCell id="41__YXktI6a2Q9gszbYc-19" value="Person" style="swimlane;fontStyle=1;align=center;verticalAlign=top;childLayout=stackLayout;horizontal=1;startSize=26;horizontalStack=0;resizeParent=1;resizeParentMax=0;resizeLast=0;collapsible=1;marginBottom=0;" vertex="1" parent="1">
          <mxGeometry x="790" y="328" width="160" height="98" as="geometry" />
        </mxCell>
        <mxCell id="41__YXktI6a2Q9gszbYc-20" value="- Name String&#xa;- email : String&#xa;- phNumber : String&#xa;- Address : String" style="text;strokeColor=none;fillColor=none;align=left;verticalAlign=top;spacingLeft=4;spacingRight=4;overflow=hidden;rotatable=0;points=[[0,0.5],[1,0.5]];portConstraint=eastwest;" vertex="1" parent="41__YXktI6a2Q9gszbYc-19">
          <mxGeometry y="26" width="160" height="64" as="geometry" />
        </mxCell>
        <mxCell id="41__YXktI6a2Q9gszbYc-21" value="" style="line;strokeWidth=1;fillColor=none;align=left;verticalAlign=middle;spacingTop=-1;spacingLeft=3;spacingRight=3;rotatable=0;labelPosition=right;points=[];portConstraint=eastwest;" vertex="1" parent="41__YXktI6a2Q9gszbYc-19">
          <mxGeometry y="90" width="160" height="8" as="geometry" />
        </mxCell>
        <mxCell id="41__YXktI6a2Q9gszbYc-27" value="Admin" style="swimlane;fontStyle=1;align=center;verticalAlign=top;childLayout=stackLayout;horizontal=1;startSize=26;horizontalStack=0;resizeParent=1;resizeParentMax=0;resizeLast=0;collapsible=1;marginBottom=0;" vertex="1" parent="1">
          <mxGeometry x="1060" y="300" width="160" height="140" as="geometry" />
        </mxCell>
        <mxCell id="41__YXktI6a2Q9gszbYc-28" value="+ field: type" style="text;strokeColor=none;fillColor=none;align=left;verticalAlign=top;spacingLeft=4;spacingRight=4;overflow=hidden;rotatable=0;points=[[0,0.5],[1,0.5]];portConstraint=eastwest;" vertex="1" parent="41__YXktI6a2Q9gszbYc-27">
          <mxGeometry y="26" width="160" height="26" as="geometry" />
        </mxCell>
        <mxCell id="41__YXktI6a2Q9gszbYc-29" value="" style="line;strokeWidth=1;fillColor=none;align=left;verticalAlign=middle;spacingTop=-1;spacingLeft=3;spacingRight=3;rotatable=0;labelPosition=right;points=[];portConstraint=eastwest;" vertex="1" parent="41__YXktI6a2Q9gszbYc-27">
          <mxGeometry y="52" width="160" height="8" as="geometry" />
        </mxCell>
        <mxCell id="41__YXktI6a2Q9gszbYc-30" value="+ addCity()&#xa;+ addMovie()&#xa;+ addCinemaHall()&#xa;+ addShow() ; void" style="text;strokeColor=none;fillColor=none;align=left;verticalAlign=top;spacingLeft=4;spacingRight=4;overflow=hidden;rotatable=0;points=[[0,0.5],[1,0.5]];portConstraint=eastwest;" vertex="1" parent="41__YXktI6a2Q9gszbYc-27">
          <mxGeometry y="60" width="160" height="80" as="geometry" />
        </mxCell>
        <mxCell id="41__YXktI6a2Q9gszbYc-31" value="Front Desk Officer" style="swimlane;fontStyle=1;align=center;verticalAlign=top;childLayout=stackLayout;horizontal=1;startSize=26;horizontalStack=0;resizeParent=1;resizeParentMax=0;resizeLast=0;collapsible=1;marginBottom=0;" vertex="1" parent="1">
          <mxGeometry x="1060" y="470" width="160" height="60" as="geometry" />
        </mxCell>
        <mxCell id="41__YXktI6a2Q9gszbYc-32" value="+ field: type" style="text;strokeColor=none;fillColor=none;align=left;verticalAlign=top;spacingLeft=4;spacingRight=4;overflow=hidden;rotatable=0;points=[[0,0.5],[1,0.5]];portConstraint=eastwest;" vertex="1" parent="41__YXktI6a2Q9gszbYc-31">
          <mxGeometry y="26" width="160" height="26" as="geometry" />
        </mxCell>
        <mxCell id="41__YXktI6a2Q9gszbYc-33" value="" style="line;strokeWidth=1;fillColor=none;align=left;verticalAlign=middle;spacingTop=-1;spacingLeft=3;spacingRight=3;rotatable=0;labelPosition=right;points=[];portConstraint=eastwest;" vertex="1" parent="41__YXktI6a2Q9gszbYc-31">
          <mxGeometry y="52" width="160" height="8" as="geometry" />
        </mxCell>
        <mxCell id="41__YXktI6a2Q9gszbYc-35" value="Customer" style="swimlane;fontStyle=1;align=center;verticalAlign=top;childLayout=stackLayout;horizontal=1;startSize=26;horizontalStack=0;resizeParent=1;resizeParentMax=0;resizeLast=0;collapsible=1;marginBottom=0;" vertex="1" parent="1">
          <mxGeometry x="1060" y="208" width="160" height="60" as="geometry" />
        </mxCell>
        <mxCell id="41__YXktI6a2Q9gszbYc-36" value="+ field: type" style="text;strokeColor=none;fillColor=none;align=left;verticalAlign=top;spacingLeft=4;spacingRight=4;overflow=hidden;rotatable=0;points=[[0,0.5],[1,0.5]];portConstraint=eastwest;" vertex="1" parent="41__YXktI6a2Q9gszbYc-35">
          <mxGeometry y="26" width="160" height="26" as="geometry" />
        </mxCell>
        <mxCell id="41__YXktI6a2Q9gszbYc-37" value="" style="line;strokeWidth=1;fillColor=none;align=left;verticalAlign=middle;spacingTop=-1;spacingLeft=3;spacingRight=3;rotatable=0;labelPosition=right;points=[];portConstraint=eastwest;" vertex="1" parent="41__YXktI6a2Q9gszbYc-35">
          <mxGeometry y="52" width="160" height="8" as="geometry" />
        </mxCell>
        <mxCell id="41__YXktI6a2Q9gszbYc-41" style="edgeStyle=orthogonalEdgeStyle;rounded=0;orthogonalLoop=1;jettySize=auto;html=1;entryX=0;entryY=0.5;entryDx=0;entryDy=0;" edge="1" parent="1" source="41__YXktI6a2Q9gszbYc-20" target="41__YXktI6a2Q9gszbYc-36">
          <mxGeometry relative="1" as="geometry" />
        </mxCell>
        <mxCell id="41__YXktI6a2Q9gszbYc-42" style="edgeStyle=orthogonalEdgeStyle;rounded=0;orthogonalLoop=1;jettySize=auto;html=1;entryX=-0.031;entryY=0.846;entryDx=0;entryDy=0;entryPerimeter=0;" edge="1" parent="1" source="41__YXktI6a2Q9gszbYc-20" target="41__YXktI6a2Q9gszbYc-28">
          <mxGeometry relative="1" as="geometry" />
        </mxCell>
        <mxCell id="41__YXktI6a2Q9gszbYc-43" style="edgeStyle=orthogonalEdgeStyle;rounded=0;orthogonalLoop=1;jettySize=auto;html=1;entryX=0;entryY=0.5;entryDx=0;entryDy=0;" edge="1" parent="1" source="41__YXktI6a2Q9gszbYc-20" target="41__YXktI6a2Q9gszbYc-32">
          <mxGeometry relative="1" as="geometry" />
        </mxCell>
        <mxCell id="41__YXktI6a2Q9gszbYc-44" style="edgeStyle=orthogonalEdgeStyle;rounded=0;orthogonalLoop=1;jettySize=auto;html=1;" edge="1" parent="1" source="41__YXktI6a2Q9gszbYc-20" target="VA1_dp1RaQFljFilSGIo-9">
          <mxGeometry relative="1" as="geometry" />
        </mxCell>
        <mxCell id="41__YXktI6a2Q9gszbYc-45" style="edgeStyle=orthogonalEdgeStyle;rounded=0;orthogonalLoop=1;jettySize=auto;html=1;entryX=0.117;entryY=0.988;entryDx=0;entryDy=0;entryPerimeter=0;" edge="1" parent="1" source="41__YXktI6a2Q9gszbYc-20" target="VA1_dp1RaQFljFilSGIo-8">
          <mxGeometry relative="1" as="geometry" />
        </mxCell>
        <mxCell id="41__YXktI6a2Q9gszbYc-46" value="uses" style="text;html=1;align=center;verticalAlign=middle;resizable=0;points=[];autosize=1;strokeColor=none;fillColor=none;" vertex="1" parent="1">
          <mxGeometry x="620" y="360" width="40" height="20" as="geometry" />
        </mxCell>
        <mxCell id="D7CCMuJ6kf_HMttC7WmC-5" style="edgeStyle=orthogonalEdgeStyle;rounded=0;orthogonalLoop=1;jettySize=auto;html=1;entryX=1.008;entryY=0.288;entryDx=0;entryDy=0;entryPerimeter=0;" edge="1" parent="1" source="D7CCMuJ6kf_HMttC7WmC-1" target="VA1_dp1RaQFljFilSGIo-8">
          <mxGeometry relative="1" as="geometry" />
        </mxCell>
        <mxCell id="D7CCMuJ6kf_HMttC7WmC-1" value="Guest" style="swimlane;fontStyle=1;align=center;verticalAlign=top;childLayout=stackLayout;horizontal=1;startSize=26;horizontalStack=0;resizeParent=1;resizeParentMax=0;resizeLast=0;collapsible=1;marginBottom=0;" vertex="1" parent="1">
          <mxGeometry x="890" y="108" width="160" height="86" as="geometry" />
        </mxCell>
        <mxCell id="D7CCMuJ6kf_HMttC7WmC-2" value="+ field: type" style="text;strokeColor=none;fillColor=none;align=left;verticalAlign=top;spacingLeft=4;spacingRight=4;overflow=hidden;rotatable=0;points=[[0,0.5],[1,0.5]];portConstraint=eastwest;" vertex="1" parent="D7CCMuJ6kf_HMttC7WmC-1">
          <mxGeometry y="26" width="160" height="26" as="geometry" />
        </mxCell>
        <mxCell id="D7CCMuJ6kf_HMttC7WmC-3" value="" style="line;strokeWidth=1;fillColor=none;align=left;verticalAlign=middle;spacingTop=-1;spacingLeft=3;spacingRight=3;rotatable=0;labelPosition=right;points=[];portConstraint=eastwest;" vertex="1" parent="D7CCMuJ6kf_HMttC7WmC-1">
          <mxGeometry y="52" width="160" height="8" as="geometry" />
        </mxCell>
        <mxCell id="D7CCMuJ6kf_HMttC7WmC-4" value="+ method(type): type" style="text;strokeColor=none;fillColor=none;align=left;verticalAlign=top;spacingLeft=4;spacingRight=4;overflow=hidden;rotatable=0;points=[[0,0.5],[1,0.5]];portConstraint=eastwest;" vertex="1" parent="D7CCMuJ6kf_HMttC7WmC-1">
          <mxGeometry y="60" width="160" height="26" as="geometry" />
        </mxCell>
        <mxCell id="D7CCMuJ6kf_HMttC7WmC-6" value="uses" style="text;html=1;align=center;verticalAlign=middle;resizable=0;points=[];autosize=1;strokeColor=none;fillColor=none;" vertex="1" parent="1">
          <mxGeometry x="810" y="129" width="40" height="20" as="geometry" />
        </mxCell>
        <mxCell id="D7CCMuJ6kf_HMttC7WmC-31" style="edgeStyle=orthogonalEdgeStyle;rounded=0;orthogonalLoop=1;jettySize=auto;html=1;entryX=-0.025;entryY=0.769;entryDx=0;entryDy=0;entryPerimeter=0;" edge="1" parent="1" source="D7CCMuJ6kf_HMttC7WmC-11" target="D7CCMuJ6kf_HMttC7WmC-26">
          <mxGeometry relative="1" as="geometry" />
        </mxCell>
        <mxCell id="D7CCMuJ6kf_HMttC7WmC-52" style="edgeStyle=orthogonalEdgeStyle;rounded=0;orthogonalLoop=1;jettySize=auto;html=1;" edge="1" parent="1" source="D7CCMuJ6kf_HMttC7WmC-11" target="D7CCMuJ6kf_HMttC7WmC-47">
          <mxGeometry relative="1" as="geometry" />
        </mxCell>
        <mxCell id="D7CCMuJ6kf_HMttC7WmC-11" value="CinemaHall" style="swimlane;fontStyle=1;align=center;verticalAlign=top;childLayout=stackLayout;horizontal=1;startSize=26;horizontalStack=0;resizeParent=1;resizeParentMax=0;resizeLast=0;collapsible=1;marginBottom=0;" vertex="1" parent="1">
          <mxGeometry x="170" y="890" width="160" height="86" as="geometry" />
        </mxCell>
        <mxCell id="D7CCMuJ6kf_HMttC7WmC-12" value="- name String&#xa;- totalSeat : int" style="text;strokeColor=none;fillColor=none;align=left;verticalAlign=top;spacingLeft=4;spacingRight=4;overflow=hidden;rotatable=0;points=[[0,0.5],[1,0.5]];portConstraint=eastwest;" vertex="1" parent="D7CCMuJ6kf_HMttC7WmC-11">
          <mxGeometry y="26" width="160" height="52" as="geometry" />
        </mxCell>
        <mxCell id="D7CCMuJ6kf_HMttC7WmC-13" value="" style="line;strokeWidth=1;fillColor=none;align=left;verticalAlign=middle;spacingTop=-1;spacingLeft=3;spacingRight=3;rotatable=0;labelPosition=right;points=[];portConstraint=eastwest;" vertex="1" parent="D7CCMuJ6kf_HMttC7WmC-11">
          <mxGeometry y="78" width="160" height="8" as="geometry" />
        </mxCell>
        <mxCell id="D7CCMuJ6kf_HMttC7WmC-36" style="edgeStyle=orthogonalEdgeStyle;rounded=0;orthogonalLoop=1;jettySize=auto;html=1;" edge="1" parent="1" source="D7CCMuJ6kf_HMttC7WmC-15" target="D7CCMuJ6kf_HMttC7WmC-11">
          <mxGeometry relative="1" as="geometry" />
        </mxCell>
        <mxCell id="D7CCMuJ6kf_HMttC7WmC-42" style="edgeStyle=orthogonalEdgeStyle;rounded=0;orthogonalLoop=1;jettySize=auto;html=1;entryX=0.123;entryY=1.033;entryDx=0;entryDy=0;entryPerimeter=0;" edge="1" parent="1" source="D7CCMuJ6kf_HMttC7WmC-15" target="VA1_dp1RaQFljFilSGIo-12">
          <mxGeometry relative="1" as="geometry" />
        </mxCell>
        <mxCell id="D7CCMuJ6kf_HMttC7WmC-15" value="Show" style="swimlane;fontStyle=1;align=center;verticalAlign=top;childLayout=stackLayout;horizontal=1;startSize=26;horizontalStack=0;resizeParent=1;resizeParentMax=0;resizeLast=0;collapsible=1;marginBottom=0;" vertex="1" parent="1">
          <mxGeometry x="230" y="740" width="160" height="78" as="geometry" />
        </mxCell>
        <mxCell id="D7CCMuJ6kf_HMttC7WmC-16" value="- creationDate : date&#xa;- startTime : date&#xa;-  endTime : date" style="text;strokeColor=none;fillColor=none;align=left;verticalAlign=top;spacingLeft=4;spacingRight=4;overflow=hidden;rotatable=0;points=[[0,0.5],[1,0.5]];portConstraint=eastwest;" vertex="1" parent="D7CCMuJ6kf_HMttC7WmC-15">
          <mxGeometry y="26" width="160" height="44" as="geometry" />
        </mxCell>
        <mxCell id="D7CCMuJ6kf_HMttC7WmC-17" value="" style="line;strokeWidth=1;fillColor=none;align=left;verticalAlign=middle;spacingTop=-1;spacingLeft=3;spacingRight=3;rotatable=0;labelPosition=right;points=[];portConstraint=eastwest;" vertex="1" parent="D7CCMuJ6kf_HMttC7WmC-15">
          <mxGeometry y="70" width="160" height="8" as="geometry" />
        </mxCell>
        <mxCell id="D7CCMuJ6kf_HMttC7WmC-23" style="edgeStyle=orthogonalEdgeStyle;rounded=0;orthogonalLoop=1;jettySize=auto;html=1;entryX=0.494;entryY=1.065;entryDx=0;entryDy=0;entryPerimeter=0;exitX=1;exitY=0.5;exitDx=0;exitDy=0;" edge="1" parent="1" source="D7CCMuJ6kf_HMttC7WmC-20" target="VA1_dp1RaQFljFilSGIo-20">
          <mxGeometry relative="1" as="geometry">
            <mxPoint x="890" y="730" as="targetPoint" />
            <Array as="points">
              <mxPoint x="680" y="819" />
              <mxPoint x="745" y="819" />
              <mxPoint x="745" y="820" />
              <mxPoint x="780" y="820" />
              <mxPoint x="780" y="743" />
            </Array>
          </mxGeometry>
        </mxCell>
        <mxCell id="D7CCMuJ6kf_HMttC7WmC-41" style="edgeStyle=orthogonalEdgeStyle;rounded=0;orthogonalLoop=1;jettySize=auto;html=1;entryX=0.5;entryY=0;entryDx=0;entryDy=0;" edge="1" parent="1" source="D7CCMuJ6kf_HMttC7WmC-19" target="D7CCMuJ6kf_HMttC7WmC-25">
          <mxGeometry relative="1" as="geometry" />
        </mxCell>
        <mxCell id="D7CCMuJ6kf_HMttC7WmC-19" value="ShowSeat" style="swimlane;fontStyle=1;align=center;verticalAlign=top;childLayout=stackLayout;horizontal=1;startSize=26;horizontalStack=0;resizeParent=1;resizeParentMax=0;resizeLast=0;collapsible=1;marginBottom=0;" vertex="1" parent="1">
          <mxGeometry x="520" y="780" width="160" height="106" as="geometry" />
        </mxCell>
        <mxCell id="D7CCMuJ6kf_HMttC7WmC-20" value="- seatNumber : int&#xa;- isResearved : boolean&#xa;- price : double" style="text;strokeColor=none;fillColor=none;align=left;verticalAlign=top;spacingLeft=4;spacingRight=4;overflow=hidden;rotatable=0;points=[[0,0.5],[1,0.5]];portConstraint=eastwest;" vertex="1" parent="D7CCMuJ6kf_HMttC7WmC-19">
          <mxGeometry y="26" width="160" height="72" as="geometry" />
        </mxCell>
        <mxCell id="D7CCMuJ6kf_HMttC7WmC-21" value="" style="line;strokeWidth=1;fillColor=none;align=left;verticalAlign=middle;spacingTop=-1;spacingLeft=3;spacingRight=3;rotatable=0;labelPosition=right;points=[];portConstraint=eastwest;" vertex="1" parent="D7CCMuJ6kf_HMttC7WmC-19">
          <mxGeometry y="98" width="160" height="8" as="geometry" />
        </mxCell>
        <mxCell id="D7CCMuJ6kf_HMttC7WmC-24" value="uses" style="text;html=1;align=center;verticalAlign=middle;resizable=0;points=[];autosize=1;strokeColor=none;fillColor=none;" vertex="1" parent="1">
          <mxGeometry x="740" y="790" width="40" height="20" as="geometry" />
        </mxCell>
        <mxCell id="D7CCMuJ6kf_HMttC7WmC-25" value="CinemaHallSeat" style="swimlane;fontStyle=1;align=center;verticalAlign=top;childLayout=stackLayout;horizontal=1;startSize=26;horizontalStack=0;resizeParent=1;resizeParentMax=0;resizeLast=0;collapsible=1;marginBottom=0;" vertex="1" parent="1">
          <mxGeometry x="520" y="930" width="160" height="60" as="geometry" />
        </mxCell>
        <mxCell id="D7CCMuJ6kf_HMttC7WmC-26" value="type : seatType" style="text;strokeColor=none;fillColor=#FF6666;align=left;verticalAlign=top;spacingLeft=4;spacingRight=4;overflow=hidden;rotatable=0;points=[[0,0.5],[1,0.5]];portConstraint=eastwest;" vertex="1" parent="D7CCMuJ6kf_HMttC7WmC-25">
          <mxGeometry y="26" width="160" height="26" as="geometry" />
        </mxCell>
        <mxCell id="D7CCMuJ6kf_HMttC7WmC-27" value="" style="line;strokeWidth=1;fillColor=none;align=left;verticalAlign=middle;spacingTop=-1;spacingLeft=3;spacingRight=3;rotatable=0;labelPosition=right;points=[];portConstraint=eastwest;" vertex="1" parent="D7CCMuJ6kf_HMttC7WmC-25">
          <mxGeometry y="52" width="160" height="8" as="geometry" />
        </mxCell>
        <mxCell id="D7CCMuJ6kf_HMttC7WmC-34" value="of" style="text;html=1;align=center;verticalAlign=middle;resizable=0;points=[];autosize=1;strokeColor=none;fillColor=none;" vertex="1" parent="1">
          <mxGeometry x="425" y="760" width="30" height="20" as="geometry" />
        </mxCell>
        <mxCell id="D7CCMuJ6kf_HMttC7WmC-35" style="edgeStyle=orthogonalEdgeStyle;rounded=0;orthogonalLoop=1;jettySize=auto;html=1;entryX=1;entryY=0.5;entryDx=0;entryDy=0;" edge="1" parent="1" source="D7CCMuJ6kf_HMttC7WmC-20" target="D7CCMuJ6kf_HMttC7WmC-16">
          <mxGeometry relative="1" as="geometry" />
        </mxCell>
        <mxCell id="D7CCMuJ6kf_HMttC7WmC-39" value="extends" style="text;html=1;align=center;verticalAlign=middle;resizable=0;points=[];autosize=1;strokeColor=none;fillColor=none;" vertex="1" parent="1">
          <mxGeometry x="610" y="890" width="60" height="20" as="geometry" />
        </mxCell>
        <mxCell id="D7CCMuJ6kf_HMttC7WmC-43" value="uses" style="text;html=1;align=center;verticalAlign=middle;resizable=0;points=[];autosize=1;strokeColor=none;fillColor=none;" vertex="1" parent="1">
          <mxGeometry x="320" y="670" width="40" height="20" as="geometry" />
        </mxCell>
        <mxCell id="D7CCMuJ6kf_HMttC7WmC-46" value="uses" style="text;html=1;align=center;verticalAlign=middle;resizable=0;points=[];autosize=1;strokeColor=none;fillColor=none;" vertex="1" parent="1">
          <mxGeometry x="550" y="740" width="40" height="20" as="geometry" />
        </mxCell>
        <mxCell id="D7CCMuJ6kf_HMttC7WmC-47" value="Cinema" style="swimlane;fontStyle=1;align=center;verticalAlign=top;childLayout=stackLayout;horizontal=1;startSize=26;horizontalStack=0;resizeParent=1;resizeParentMax=0;resizeLast=0;collapsible=1;marginBottom=0;" vertex="1" parent="1">
          <mxGeometry x="170" y="1030" width="160" height="98" as="geometry" />
        </mxCell>
        <mxCell id="D7CCMuJ6kf_HMttC7WmC-48" value="name : String &#xa;numberOfCinemaHalls : int&#xa;- Address String" style="text;strokeColor=none;fillColor=none;align=left;verticalAlign=top;spacingLeft=4;spacingRight=4;overflow=hidden;rotatable=0;points=[[0,0.5],[1,0.5]];portConstraint=eastwest;" vertex="1" parent="D7CCMuJ6kf_HMttC7WmC-47">
          <mxGeometry y="26" width="160" height="64" as="geometry" />
        </mxCell>
        <mxCell id="D7CCMuJ6kf_HMttC7WmC-49" value="" style="line;strokeWidth=1;fillColor=none;align=left;verticalAlign=middle;spacingTop=-1;spacingLeft=3;spacingRight=3;rotatable=0;labelPosition=right;points=[];portConstraint=eastwest;" vertex="1" parent="D7CCMuJ6kf_HMttC7WmC-47">
          <mxGeometry y="90" width="160" height="8" as="geometry" />
        </mxCell>
        <mxCell id="D7CCMuJ6kf_HMttC7WmC-53" value="1" style="text;html=1;align=center;verticalAlign=middle;resizable=0;points=[];autosize=1;strokeColor=none;fillColor=none;rotation=90;" vertex="1" parent="1">
          <mxGeometry x="260" y="1010" width="20" height="20" as="geometry" />
        </mxCell>
        <mxCell id="D7CCMuJ6kf_HMttC7WmC-54" value="*" style="text;html=1;align=center;verticalAlign=middle;resizable=0;points=[];autosize=1;strokeColor=none;fillColor=none;" vertex="1" parent="1">
          <mxGeometry x="260" y="980" width="20" height="20" as="geometry" />
        </mxCell>
        <mxCell id="D7CCMuJ6kf_HMttC7WmC-59" style="edgeStyle=orthogonalEdgeStyle;rounded=0;orthogonalLoop=1;jettySize=auto;html=1;entryX=1.019;entryY=0.152;entryDx=0;entryDy=0;entryPerimeter=0;" edge="1" parent="1" source="D7CCMuJ6kf_HMttC7WmC-55" target="VA1_dp1RaQFljFilSGIo-16">
          <mxGeometry relative="1" as="geometry" />
        </mxCell>
        <mxCell id="D7CCMuJ6kf_HMttC7WmC-55" value="Payment" style="swimlane;fontStyle=1;align=center;verticalAlign=top;childLayout=stackLayout;horizontal=1;startSize=26;horizontalStack=0;resizeParent=1;resizeParentMax=0;resizeLast=0;collapsible=1;marginBottom=0;" vertex="1" parent="1">
          <mxGeometry x="1040" y="550" width="200" height="98" as="geometry" />
        </mxCell>
        <mxCell id="D7CCMuJ6kf_HMttC7WmC-56" value="- amount : double&#xa;- createDate : date&#xa;- paymentStatus : PaymentStatus&#xa;- transactionId: int" style="text;strokeColor=none;fillColor=none;align=left;verticalAlign=top;spacingLeft=4;spacingRight=4;overflow=hidden;rotatable=0;points=[[0,0.5],[1,0.5]];portConstraint=eastwest;" vertex="1" parent="D7CCMuJ6kf_HMttC7WmC-55">
          <mxGeometry y="26" width="200" height="64" as="geometry" />
        </mxCell>
        <mxCell id="D7CCMuJ6kf_HMttC7WmC-57" value="" style="line;strokeWidth=1;fillColor=none;align=left;verticalAlign=middle;spacingTop=-1;spacingLeft=3;spacingRight=3;rotatable=0;labelPosition=right;points=[];portConstraint=eastwest;" vertex="1" parent="D7CCMuJ6kf_HMttC7WmC-55">
          <mxGeometry y="90" width="200" height="8" as="geometry" />
        </mxCell>
        <mxCell id="D7CCMuJ6kf_HMttC7WmC-60" value="uses" style="text;html=1;align=center;verticalAlign=middle;resizable=0;points=[];autosize=1;strokeColor=none;fillColor=none;" vertex="1" parent="1">
          <mxGeometry x="970" y="550" width="40" height="20" as="geometry" />
        </mxCell>
      </root>
    </mxGraphModel>
  </diagram>
</mxfile>
